<?xml version="1.0" standalone="no"?>
<!DOCTYPE svg PUBLIC "-//W3C//DTD SVG 20010904//EN"
 "http://www.w3.org/TR/2001/REC-SVG-20010904/DTD/svg10.dtd">
<svg version="1.0" xmlns="http://www.w3.org/2000/svg"
 width="612.000000pt" height="612.000000pt" viewBox="0 0 612.000000 612.000000"
 preserveAspectRatio="xMidYMid meet">

<g transform="translate(0.000000,612.000000) scale(0.100000,-0.100000)"
fill="#000000" stroke="none">
<path d="M5335 5226 c-209 -111 -405 -215 -435 -231 -30 -16 -102 -54 -160
-86 -58 -31 -148 -79 -200 -106 -102 -54 -200 -106 -347 -185 -51 -27 -93 -47
-93 -44 0 4 117 149 418 514 137 167 154 200 112 222 -22 12 -30 8 -435 -165
-417 -179 -846 -370 -1195 -532 -124 -58 -254 -119 -290 -135 -114 -52 -730
-362 -860 -433 -547 -296 -772 -446 -966 -639 -297 -298 -467 -620 -534 -1015
-16 -93 -13 -337 5 -450 18 -108 81 -305 127 -395 83 -164 176 -292 304 -419
120 -118 225 -194 374 -271 510 -262 1124 -221 1615 109 180 121 413 345 766
736 57 63 118 131 134 150 17 19 77 88 135 154 146 167 306 358 625 746 489
595 1065 1327 1065 1351 0 17 -31 48 -47 48 -6 0 -262 -124 -569 -276 -606
-299 -745 -366 -750 -362 -1 2 105 125 238 273 132 149 265 299 296 334 85 96
141 159 202 226 30 33 84 94 120 134 36 41 74 84 85 96 466 521 701 790 703
806 5 26 -15 49 -42 48 -11 0 -192 -91 -401 -203z m-3251 -1857 c153 -26 322
-93 456 -180 83 -54 266 -236 315 -314 64 -100 132 -254 160 -360 33 -123 44
-336 25 -466 -51 -350 -258 -653 -572 -836 -185 -108 -330 -146 -563 -147
-253 -1 -459 59 -657 191 -335 223 -533 614 -515 1014 21 436 269 813 659 999
217 104 458 138 692 99z"/>
<path d="M1770 3279 c-119 -14 -340 -84 -340 -108 0 -5 7 -15 17 -22 58 -49
71 -198 27 -327 -51 -153 -157 -305 -273 -391 -69 -51 -158 -91 -203 -91 -42
0 -100 21 -125 46 -21 22 -24 22 -31 6 -9 -23 -9 -322 0 -345 7 -17 10 -17 39
-1 36 18 91 14 148 -13 88 -42 223 -207 279 -340 55 -130 51 -257 -10 -308
l-29 -25 53 -33 c29 -19 72 -44 96 -56 l42 -21 0 37 c0 108 140 213 357 269
131 34 361 44 474 21 138 -29 239 -89 255 -151 3 -14 10 -26 16 -26 17 0 118
103 172 175 149 198 216 398 216 645 l0 125 -62 0 c-81 1 -156 26 -240 82
-141 92 -236 254 -268 456 -14 86 -2 198 25 234 8 10 15 21 15 24 0 13 -178
88 -255 108 -87 22 -229 42 -285 40 -19 -1 -69 -5 -110 -10z m547 -834 c119
-60 164 -211 113 -377 -34 -112 -137 -243 -240 -305 -120 -73 -281 -64 -356
19 -174 190 -6 588 286 679 56 17 144 10 197 -16z"/>
<path d="M2092 2339 c-163 -81 -273 -308 -214 -441 11 -26 32 -54 46 -63 150
-99 426 133 426 358 0 159 -109 221 -258 146z"/>
<path d="M1263 3065 c-143 -72 -292 -270 -338 -454 -26 -101 0 -171 65 -171
45 0 143 57 203 117 131 134 207 286 207 416 0 115 -38 141 -137 92z"/>
<path d="M2476 3038 c-20 -76 8 -221 65 -336 69 -141 199 -243 327 -259 51 -6
52 -5 52 20 0 65 -70 236 -148 357 -61 97 -224 240 -273 240 -9 0 -19 -10 -23
-22z"/>
<path d="M909 1933 c-13 -34 2 -112 36 -190 60 -135 199 -283 266 -283 38 0
46 34 30 115 -26 124 -139 292 -240 357 -57 35 -79 36 -92 1z"/>
<path d="M1890 1470 c-201 -43 -329 -117 -330 -192 -1 -74 179 -126 398 -115
234 12 455 97 493 190 10 24 9 31 -12 53 -28 30 -88 58 -158 73 -81 17 -292
13 -391 -9z"/>
</g>
</svg>
